<svg version="1.2" xmlns="http://www.w3.org/2000/svg" viewBox="0 0 512 512" width="512" height="512">
	<title>android</title>
	<style>
		.s0 { fill: #3ddc84 } 
	</style>
	<path class="s0" d="m434.5 342c-1.2-14.5-4.1-28.8-8.8-42.6-4.7-13.8-11-26.9-18.9-39.1-8-12.2-17.4-23.4-28-33.3-10.7-9.9-22.5-18.4-35.3-25.4l29.7-51.5c0.6-1.5 0.9-3.1 0.4-4.6-0.4-1.6-1.4-2.9-2.7-3.7-1.4-0.8-3.1-1-4.6-0.6-1.5 0.4-2.8 1.4-3.6 2.8l-30.3 52c-12-5.4-24.5-9.5-37.3-12.2-12.9-2.7-26-4.1-39.1-4.1-13.1 0-26.2 1.4-39.1 4.1-12.8 2.7-25.3 6.8-37.3 12.2l-30.1-52.1c-1-1.3-2.3-2.3-3.8-2.7-1.5-0.4-3.2-0.2-4.6 0.6-1.3 0.8-2.3 2.1-2.7 3.7-0.5 1.5-0.2 3.1 0.6 4.5l29.5 51.6c-12.8 7-24.6 15.5-35.3 25.4-10.6 9.9-20 21.1-28 33.3-7.9 12.2-14.2 25.3-18.9 39.1-4.7 13.8-7.6 28.1-8.8 42.6m96.3-50.9c-8.2 0-14.9-6.7-14.8-14.9 0-8.2 6.6-14.9 14.8-14.9 8.3 0 14.9 6.7 14.9 14.9 0.1 8.2-6.6 14.9-14.8 14.9m164.3 0c-8.2 0-14.9-6.7-14.8-14.9 0-8.2 6.6-14.9 14.8-14.9 8.3 0 14.9 6.7 14.9 14.9 0.1 8.2-6.6 14.9-14.8 14.9"/>
</svg>