<?xml version="1.0" encoding="UTF-8" standalone="no"?>
<!-- Created with Inkscape (http://www.inkscape.org/) -->

<svg
   version="1.1"
   id="svg2"
   width="682.66669"
   height="682.66669"
   viewBox="0 0 682.66669 682.66669"
   sodipodi:docname="logo.ai"
   xmlns:inkscape="http://www.inkscape.org/namespaces/inkscape"
   xmlns:sodipodi="http://sodipodi.sourceforge.net/DTD/sodipodi-0.dtd"
   xmlns="http://www.w3.org/2000/svg"
   xmlns:svg="http://www.w3.org/2000/svg">
  <defs
     id="defs6">
    <clipPath
       clipPathUnits="userSpaceOnUse"
       id="clipPath16">
      <path
         d="M 0,512 H 512 V 0 H 0 Z"
         id="path14" />
    </clipPath>
    <radialGradient
       fx="0"
       fy="0"
       cx="0"
       cy="0"
       r="1"
       gradientUnits="userSpaceOnUse"
       gradientTransform="matrix(252.13264,0,0,-252.13264,260.99557,124.88687)"
       spreadMethod="pad"
       id="radialGradient40">
      <stop
         style="stop-opacity:1;stop-color:#fcf9cf"
         offset="0"
         id="stop34" />
      <stop
         style="stop-opacity:1;stop-color:#fcf9cf"
         offset="0.2035363"
         id="stop36" />
      <stop
         style="stop-opacity:1;stop-color:#f4a989"
         offset="1"
         id="stop38" />
    </radialGradient>
    <radialGradient
       fx="0"
       fy="0"
       cx="0"
       cy="0"
       r="1"
       gradientUnits="userSpaceOnUse"
       gradientTransform="matrix(252.12181,0,0,-252.12181,260.99979,124.88432)"
       spreadMethod="pad"
       id="radialGradient62">
      <stop
         style="stop-opacity:1;stop-color:#fcf9cf"
         offset="0"
         id="stop56" />
      <stop
         style="stop-opacity:1;stop-color:#fcf9cf"
         offset="0.2035363"
         id="stop58" />
      <stop
         style="stop-opacity:1;stop-color:#f4a989"
         offset="1"
         id="stop60" />
    </radialGradient>
    <radialGradient
       fx="0"
       fy="0"
       cx="0"
       cy="0"
       r="1"
       gradientUnits="userSpaceOnUse"
       gradientTransform="matrix(252.15222,0,0,-252.15222,260.99438,124.89259)"
       spreadMethod="pad"
       id="radialGradient84">
      <stop
         style="stop-opacity:1;stop-color:#fcf9cf"
         offset="0"
         id="stop78" />
      <stop
         style="stop-opacity:1;stop-color:#fcf9cf"
         offset="0.2035363"
         id="stop80" />
      <stop
         style="stop-opacity:1;stop-color:#f4a989"
         offset="1"
         id="stop82" />
    </radialGradient>
    <radialGradient
       fx="0"
       fy="0"
       cx="0"
       cy="0"
       r="1"
       gradientUnits="userSpaceOnUse"
       gradientTransform="matrix(252.16844,0,0,-252.16844,260.99518,124.88586)"
       spreadMethod="pad"
       id="radialGradient106">
      <stop
         style="stop-opacity:1;stop-color:#fcf9cf"
         offset="0"
         id="stop100" />
      <stop
         style="stop-opacity:1;stop-color:#fcf9cf"
         offset="0.2035363"
         id="stop102" />
      <stop
         style="stop-opacity:1;stop-color:#f4a989"
         offset="1"
         id="stop104" />
    </radialGradient>
    <radialGradient
       fx="0"
       fy="0"
       cx="0"
       cy="0"
       r="1"
       gradientUnits="userSpaceOnUse"
       gradientTransform="matrix(163.1187,0,0,-163.1187,256.74582,173.32265)"
       spreadMethod="pad"
       id="radialGradient128">
      <stop
         style="stop-opacity:1;stop-color:#fed52b"
         offset="0"
         id="stop122" />
      <stop
         style="stop-opacity:1;stop-color:#fed52b"
         offset="0.2035363"
         id="stop124" />
      <stop
         style="stop-opacity:1;stop-color:#ec6325"
         offset="1"
         id="stop126" />
    </radialGradient>
    <linearGradient
       x1="0"
       y1="0"
       x2="1"
       y2="0"
       gradientUnits="userSpaceOnUse"
       gradientTransform="matrix(409.6492,0,0,-409.6492,51.159801,255.94321)"
       spreadMethod="pad"
       id="linearGradient152">
      <stop
         style="stop-opacity:1;stop-color:#ec6325"
         offset="0"
         id="stop144" />
      <stop
         style="stop-opacity:1;stop-color:#ec6325"
         offset="0.16282904"
         id="stop146" />
      <stop
         style="stop-opacity:1;stop-color:#cc3a17"
         offset="0.8"
         id="stop148" />
      <stop
         style="stop-opacity:1;stop-color:#d93516"
         offset="1"
         id="stop150" />
    </linearGradient>
  </defs>
  <sodipodi:namedview
     id="namedview4"
     pagecolor="#ffffff"
     bordercolor="#000000"
     borderopacity="0.25"
     inkscape:showpageshadow="2"
     inkscape:pageopacity="0.0"
     inkscape:pagecheckerboard="0"
     inkscape:deskcolor="#d1d1d1" />
  <g
     id="g8"
     inkscape:groupmode="layer"
     inkscape:label="logo"
     transform="matrix(1.3333333,0,0,-1.3333333,0,682.66667)">
    <g
       id="g10">
      <g
         id="g12"
         clip-path="url(#clipPath16)">
        <g
           id="g18"
           transform="translate(161.7925,417.2163)">
          <path
             d="m 0,0 c 25.389,17.58 48.347,23.901 53.911,25.356 20.006,5.231 36.561,5.444 44.865,5.222 40.922,-1.096 70.346,-17.828 84.884,-26.325 5.725,-3.347 15.756,-9.371 27.415,-19.249 49.885,-42.262 60.169,-102.568 61.974,-114.101 1.874,-11.971 3.512,-29.896 1.03,-51.937 -12.692,46.43 -34.141,91.751 -69.152,125.521 -17.645,16.579 -38.554,30.127 -61.9,37.082 8.816,-14.846 17.52,-29.759 25.075,-45.319 5.224,-10.77 9.833,-21.802 14.417,-32.879 7.003,-17.411 12.762,-35.348 17.268,-53.571 11.856,-48.864 13.354,-102.18 -7.066,-149.011 -0.635,5.692 -1.004,11.413 -1.282,17.155 -1.365,25.345 -4.883,50.565 -10.049,75.421 -4.733,21.614 -10.388,43.055 -17.86,63.907 -6.592,18.879 -14.371,37.37 -23.291,55.276 -7.555,15.041 -15.774,29.785 -25.589,43.479 -1.187,-20.46 -2.406,-40.919 -3.751,-61.385 -0.572,-8.741 -1.257,-17.491 -1.585,-26.26 -1.149,-14.784 -2.016,-29.595 -2.982,-44.375 -1.129,-16.943 -2.262,-33.862 -3.415,-50.785 -2.128,-29.481 -4.095,-58.971 -6.719,-88.414 -0.51,-4.904 -1.154,-9.812 -1.896,-14.699 -0.769,4.949 -1.371,9.944 -1.794,14.91 -2.369,30.153 -4.38,60.295 -6.361,90.473 -1.062,16.142 -2.093,32.298 -3.092,48.445 -0.809,13.275 -1.768,26.545 -2.303,39.84 0,10.727 -1.745,21.337 -2.13,32.043 -1.455,19.267 -2.114,38.598 -3.805,57.844 C 62.342,-61.85 52.055,-79.001 42.499,-96.432 32.361,-115.19 23.873,-134.818 16.616,-154.855 7.481,-180.731 0.824,-207.511 -2.841,-234.71 c -1.728,-12.309 -2.857,-24.707 -3.226,-37.123 -0.21,-9.841 -0.253,-19.674 -0.788,-29.511 -20.377,63.987 -11.221,133.238 10.174,195.673 4.952,13.78 10.032,27.523 16.094,40.853 6.42,15.261 14.568,29.703 22.034,44.441 -29.164,-5.202 -53.015,-25.386 -71.062,-47.871 -36.892,-45.962 -56.689,-113.671 -56.694,-113.682 -1.478,11.762 -2.419,28.394 0.401,47.877 7.599,52.513 37.413,87.106 50.7,102.18 C -18.733,-13.183 -3.776,-2.615 0,0"
             style="fill:#ffffff;fill-opacity:1;fill-rule:nonzero;stroke:none"
             id="path20" />
        </g>
      </g>
    </g>
    <g
       id="g22">
      <g
         id="g24">
        <g
           id="g30">
          <g
             id="g32">
            <path
               d="m 132.178,348.969 c -3.287,-9.862 -6.939,-19.57 -9.885,-29.528 v 0 c -3.946,-12.339 -7.144,-24.879 -10.196,-37.467 v 0 c -5.935,-26.649 -10.648,-53.538 -14.616,-80.545 v 0 c -0.469,-4.028 -0.552,-8.112 -0.342,-12.161 v 0 c 2.344,8.153 6.254,15.699 10.218,23.121 v 0 c 15.257,29.788 31.344,59.17 49.204,87.462 v 0 c 2.603,4.081 5.634,7.852 8.551,11.694 v 0 c 4.951,13.78 10.032,27.524 16.093,40.854 v 0 c 6.42,15.26 14.568,29.702 22.034,44.441 v 0 c -29.164,-5.203 -53.015,-25.387 -71.061,-47.871"
               style="fill:url(#radialGradient40);stroke:none"
               id="path42" />
          </g>
        </g>
      </g>
    </g>
    <g
       id="g44">
      <g
         id="g46">
        <g
           id="g52">
          <g
             id="g54">
            <path
               d="m 204.291,320.784 c -0.986,-6.679 -1.631,-13.4 -2.373,-20.1 v 0 c -1.108,-9.752 -2.137,-19.522 -2.813,-29.313 v 0 c -0.214,-3.095 -0.408,-6.189 -0.593,-9.289 v 0 c -1.071,-15.635 -1.434,-31.318 -1.241,-46.976 v 0 c 0.103,-7.168 0.254,-14.317 0.552,-21.465 v 0 c 1.987,-23.299 5.23,-46.62 12.482,-68.936 v 0 c 0.642,16.77 1.132,33.584 3.708,50.184 v 0 c 2.353,17.873 5.767,35.613 9.625,53.211 v 0 c 0.941,4.03 1.959,8.025 2.946,12.037 v 0 c 2.707,11.027 5.653,21.99 8.897,32.874 v 0 c 1.558,5.226 3.161,10.412 4.779,15.62 v 0 c 0.787,-2.539 1.579,-5.084 2.285,-7.638 v 0 c 0,10.728 -1.746,21.338 -2.131,32.043 v 0 c -1.454,19.267 -2.114,38.598 -3.804,57.844 v 0 c -12.476,-15.513 -22.762,-32.665 -32.319,-50.096"
               style="fill:url(#radialGradient62);stroke:none"
               id="path64" />
          </g>
        </g>
      </g>
    </g>
    <g
       id="g66">
      <g
         id="g68">
        <g
           id="g74">
          <g
             id="g76">
            <path
               d="m 329.894,353.466 c 5.225,-10.769 9.833,-21.802 14.417,-32.879 v 0 c 4.208,-3.564 7.726,-7.868 10.613,-12.587 v 0 c 10.916,-16.915 20.155,-34.945 27.308,-53.762 v 0 c 7.911,-19.586 13.33,-40.015 18.282,-60.485 v 0 c 2.669,15.998 1.582,32.233 0.943,48.342 v 0 c -2.183,28.802 -7.596,57.564 -18.441,84.448 v 0 c -4.352,12.224 -11.534,23.131 -16.297,35.161 v 0 c -17.645,16.579 -38.554,30.126 -61.9,37.081 v 0 c 8.817,-14.846 17.52,-29.759 25.075,-45.319"
               style="fill:url(#radialGradient84);stroke:none"
               id="path86" />
          </g>
        </g>
      </g>
    </g>
    <g
       id="g88">
      <g
         id="g90">
        <g
           id="g96">
          <g
             id="g98">
            <path
               d="m 272.691,311.858 c -0.572,-8.741 -1.256,-17.491 -1.585,-26.259 v 0 c 1.693,-4.566 3.548,-9.071 5.108,-13.702 v 0 c 3.265,-10.685 6.165,-21.504 8.468,-32.449 v 0 c 0.963,-4.498 1.854,-9.025 2.692,-13.566 v 0 c 2.899,-16.214 4.713,-32.631 5.676,-49.073 v 0 c 0.725,-15.984 0.144,-31.961 -0.34,-47.923 v 0 c 6.761,11.004 10.749,23.392 14.056,35.805 v 0 c 2.41,12.434 4.48,24.98 5.081,37.653 v 0 c 0.486,9.623 0.889,19.243 0.718,28.873 v 0 c -0.332,11.28 -1.02,22.552 -1.999,33.793 v 0 c -0.449,4.782 -0.938,9.559 -1.474,14.316 v 0 c -1.019,9.156 -2.249,18.263 -3.716,27.33 v 0 c -1.387,7.658 -2.391,15.386 -3.345,23.108 v 0 c -7.555,15.041 -15.773,29.785 -25.589,43.479 v 0 c -1.186,-20.459 -2.406,-40.919 -3.751,-61.385"
               style="fill:url(#radialGradient106);stroke:none"
               id="path108" />
          </g>
        </g>
      </g>
    </g>
    <g
       id="g110">
      <g
         id="g112">
        <g
           id="g118">
          <g
             id="g120">
            <path
               d="m 383.016,326.543 c 10.845,-26.884 16.258,-55.646 18.441,-84.448 v 0 c 0.639,-16.109 1.726,-32.344 -0.943,-48.342 v 0 c -4.952,20.47 -10.371,40.899 -18.282,60.485 v 0 C 375.079,273.055 365.84,291.085 354.924,308 v 0 c -2.887,4.719 -6.405,9.023 -10.613,12.587 v 0 c 7.003,-17.41 12.762,-35.347 17.268,-53.571 v 0 c 11.856,-48.864 13.355,-102.18 -7.065,-149.011 v 0 c -0.635,5.692 -1.004,11.413 -1.283,17.155 v 0 c -1.365,25.345 -4.882,50.566 -10.048,75.421 v 0 c -4.734,21.614 -10.388,43.056 -17.861,63.907 v 0 c -6.592,18.88 -14.371,37.37 -23.291,55.276 v 0 c 0.954,-7.722 1.958,-15.45 3.345,-23.108 v 0 c 1.467,-9.067 2.697,-18.174 3.716,-27.33 v 0 c 0.536,-4.757 1.025,-9.534 1.474,-14.316 v 0 c 0.979,-11.241 1.667,-22.513 1.999,-33.793 v 0 c 0.171,-9.63 -0.232,-19.25 -0.718,-28.873 v 0 c -0.601,-12.673 -2.671,-25.219 -5.081,-37.653 v 0 c -3.307,-12.413 -7.295,-24.801 -14.056,-35.805 v 0 c 0.484,15.962 1.065,31.939 0.34,47.923 v 0 c -0.963,16.442 -2.777,32.859 -5.676,49.073 v 0 c -0.838,4.541 -1.729,9.068 -2.692,13.566 v 0 c -2.303,10.945 -5.203,21.764 -8.468,32.449 v 0 c -1.56,4.631 -3.415,9.136 -5.108,13.702 v 0 c -1.149,-14.785 -2.015,-29.596 -2.982,-44.376 v 0 c -1.129,-16.943 -2.261,-33.862 -3.414,-50.785 v 0 c -2.129,-29.481 -4.096,-58.971 -6.72,-88.414 v 0 c -0.51,-4.904 -1.153,-9.812 -1.896,-14.699 v 0 c -0.768,4.949 -1.371,9.944 -1.794,14.911 v 0 c -2.369,30.153 -4.379,60.294 -6.36,90.472 v 0 c -1.062,16.142 -2.093,32.298 -3.093,48.445 v 0 c -0.809,13.276 -1.768,26.546 -2.302,39.84 v 0 c -0.706,2.554 -1.498,5.099 -2.285,7.638 v 0 c -1.618,-5.208 -3.221,-10.394 -4.779,-15.62 v 0 c -3.244,-10.884 -6.19,-21.847 -8.897,-32.874 v 0 c -0.987,-4.012 -2.005,-8.007 -2.946,-12.037 v 0 c -3.858,-17.598 -7.272,-35.338 -9.625,-53.211 v 0 c -2.576,-16.6 -3.066,-33.414 -3.708,-50.184 v 0 c -7.252,22.316 -10.495,45.637 -12.482,68.936 v 0 c -0.298,7.148 -0.449,14.297 -0.552,21.465 v 0 c -0.193,15.658 0.17,31.341 1.241,46.976 v 0 c 0.185,3.1 0.379,6.194 0.593,9.289 v 0 c 0.676,9.791 1.705,19.561 2.813,29.313 v 0 c 0.742,6.7 1.387,13.421 2.373,20.1 v 0 c -10.138,-18.758 -18.626,-38.387 -25.882,-58.422 v 0 c -9.135,-25.877 -15.792,-52.657 -19.458,-79.856 v 0 c -1.728,-12.309 -2.857,-24.706 -3.226,-37.124 v 0 c -0.209,-9.84 -0.253,-19.673 -0.788,-29.51 v 0 c -20.376,63.988 -11.221,133.238 10.175,195.673 v 0 c -2.917,-3.842 -5.948,-7.613 -8.551,-11.694 v 0 c -17.86,-28.292 -33.947,-57.674 -49.204,-87.462 v 0 c -3.964,-7.422 -7.874,-14.968 -10.218,-23.121 v 0 c -0.21,4.049 -0.127,8.133 0.342,12.161 v 0 c 3.968,27.007 8.681,53.896 14.616,80.545 v 0 c 3.052,12.588 6.25,25.128 10.196,37.467 v 0 c 2.946,9.958 6.598,19.666 9.885,29.528 v 0 C 105.695,315.473 88.418,275.703 75.484,235.286 v 0 c 1.025,-10.3 3.518,-20.39 6.168,-30.385 v 0 c 3.961,-15.782 10.278,-31.082 19.091,-44.778 v 0 c 0.728,-1.493 1.472,-2.966 2.241,-4.439 v 0 c 1.069,-2.004 2.177,-4.016 3.267,-5.994 v 0 c 6.657,-7.427 12.057,-16.023 19.925,-22.297 v 0 c 14.722,-13.483 30.661,-25.883 48.708,-34.588 v 0 c 29.363,-15.188 63.284,-21.1 96.119,-18.37 v 0 c 15.367,1.128 30.091,5.954 45.152,8.833 v 0 c 25.916,10.483 50.436,25.175 70.064,45.279 v 0 c 6.119,6.165 11.736,12.824 16.94,19.781 v 0 c 2.35,3.279 4.434,6.763 6.574,10.173 v 0 c 14.932,22.636 24.511,49.2 26.262,76.316 v 0 l -0.124,1.365 c -12.691,46.43 -34.141,91.751 -69.152,125.522 v 0 c 4.763,-12.03 11.945,-22.937 16.297,-35.161"
               style="fill:url(#radialGradient128);stroke:none"
               id="path130" />
          </g>
        </g>
      </g>
    </g>
    <g
       id="g132">
      <g
         id="g134">
        <g
           id="g140">
          <g
             id="g142">
            <path
               d="m 246.514,460.768 c -8.087,-0.643 -16.152,-1.601 -24.176,-2.9 v 0 C 141.736,445.72 72.518,380.18 56.199,300.298 v 0 C 53.313,288.862 52.245,277.086 51.16,265.376 v 0 -18.817 c 1.454,-19.147 4.547,-38.264 10.928,-56.415 v 0 c 3.474,-10.713 8.107,-21.039 13.375,-31 v 0 c 10.476,-19.399 24.065,-37.085 40.136,-52.17 v 0 C 150.627,73.282 198.14,53.828 246.514,51.118 v 0 h 18.855 c 7.322,0.681 14.62,1.601 21.893,2.561 v 0 c 35.805,5.227 70.131,20.503 97.932,43.678 v 0 c 0.577,0.485 1.153,0.95 1.75,1.444 v 0 c 43.331,35.251 70.222,89.181 73.629,144.833 v 0 l 0.236,2.448 v 19.377 C 457.867,325.8 427.245,383.98 378.664,419.998 v 0 c -12.331,9.017 -25.47,17.001 -39.492,23.082 v 0 c -23.147,10.586 -48.387,15.937 -73.691,17.688 v 0 z M 174.884,92.805 c -18.047,8.705 -33.986,21.105 -48.708,34.588 v 0 c -7.543,6.012 -13.027,14.605 -19.925,22.297 v 0 c -1.09,1.978 -2.198,3.99 -3.267,5.994 v 0 c -0.769,1.473 -1.513,2.946 -2.241,4.439 v 0 c -8.813,13.696 -15.13,28.996 -19.091,44.778 v 0 c -2.65,9.995 -5.143,20.085 -6.168,30.385 v 0 c -0.519,3.026 -2.344,29.382 0.4,47.877 v 0 c 6.916,37.897 24.288,74.037 50.7,102.18 v 0 c 28.077,30.041 56.768,52.225 105.57,60.554 v 0 c 29.447,3.308 31.829,1.96 47.516,-0.771 v 0 c 23.042,-4.089 45.424,-12.074 65.782,-23.657 v 0 c 9.72,-5.524 18.878,-12.016 27.415,-19.248 v 0 c 33.879,-28.787 54.486,-70.706 61.975,-114.102 v 0 c 2.801,-17.284 1.153,-53.302 1.153,-53.302 v 0 c -1.751,-27.116 -11.33,-53.68 -26.262,-76.316 v 0 c -2.14,-3.41 -4.224,-6.894 -6.574,-10.173 v 0 c -5.204,-6.957 -10.821,-13.616 -16.94,-19.781 v 0 C 366.591,108.443 342.071,93.751 316.155,83.268 v 0 C 301.094,80.389 286.37,75.563 271.003,74.435 v 0 C 265.848,74.006 260.662,73.79 255.476,73.79 v 0 c -27.851,0 -55.839,6.211 -80.592,19.015"
               style="fill:url(#linearGradient152);stroke:none"
               id="path154" />
          </g>
        </g>
      </g>
    </g>
  </g>
</svg>
